<?xml version="1.0" standalone="no"?>
<!DOCTYPE svg PUBLIC "-//W3C//DTD SVG 20010904//EN"
 "http://www.w3.org/TR/2001/REC-SVG-20010904/DTD/svg10.dtd">
<svg version="1.0" xmlns="http://www.w3.org/2000/svg"
 width="1160.000000pt" height="1160.000000pt" viewBox="0 0 1160.000000 1160.000000"
 preserveAspectRatio="xMidYMid meet">
<metadata>
Created by potrace 1.11, written by Peter Selinger 2001-2013
</metadata>
<g transform="translate(0.000000,1160.000000) scale(0.100000,-0.100000)"
fill="#000000" stroke="none">
<path d="M1828 7771 l-33 -29 -3 -1691 -2 -1691 -303 0 c-180 0 -317 -4 -340
-11 -49 -13 -105 -63 -128 -114 -27 -59 -27 -351 0 -410 26 -58 80 -101 143
-115 39 -8 1245 -10 4674 -8 l4621 3 48 30 c35 21 56 45 74 80 23 44 26 63 29
182 6 214 -23 293 -121 339 -52 24 -55 24 -369 24 l-318 0 0 1091 0 1091 -28
28 -28 28 -310 7 c-171 4 -325 4 -343 0 -17 -4 -45 -18 -61 -32 l-30 -25 0
445 c0 433 -1 445 -21 470 -34 45 -70 48 -406 45 l-311 -3 -26 -24 -26 -24 0
114 c0 133 -11 180 -47 209 -25 19 -38 20 -367 20 l-342 0 -28 -29 -27 -28
-29 28 -28 29 -344 0 -344 0 -30 -31 -29 -30 -3 -590 -3 -589 -30 22 c-30 23
-34 23 -364 23 l-333 0 -26 -24 -26 -24 0 424 c0 475 0 476 -70 512 -32 16
-66 17 -357 15 l-323 -3 -31 -31 -31 -31 -27 27 -27 28 -327 7 c-450 10 -427
28 -427 -323 l0 -223 -31 23 c-30 23 -33 23 -364 23 l-334 0 -30 -29 -31 -30
0 198 0 198 -28 27 -28 28 -311 8 c-171 4 -326 4 -344 0 -19 -4 -46 -19 -61
-33 l-28 -26 0 198 0 198 -29 29 -29 29 -341 0 -341 0 -32 -29z"/>
</g>
</svg>
